Coordinates
version=1
nRows=26
nColumns=24
inDegrees=yes

Units are S.I. units (second, meters, Newtons, ...)
Angles are in degrees.

endheader
time	pelvis_tilt	pelvis_list	pelvis_rotation	pelvis_tx	pelvis_ty	pelvis_tz	hip_flexion_r	hip_adduction_r	hip_rotation_r	knee_angle_r	ankle_angle_r	subtalar_angle_r	mtp_angle_r	hip_flexion_l	hip_adduction_l	hip_rotation_l	knee_angle_l	ankle_angle_l	subtalar_angle_l	mtp_angle_l	lumbar_extension	lumbar_bending	lumbar_rotation
      1.83000000	     -7.33209144	     -2.33800939	      2.20615087	      0.14220584	      1.23797732	     -0.87054703	     12.90973177	      8.45411783	      0.87801041	     -8.62022653	      1.72169090	     -6.84255500	      3.60561746	     30.38698097	      4.85642908	      1.22090694	    -60.53061790	     -4.56843713	     -0.69442305	     24.15881540	     -5.28136304	      3.81696145	      3.50173527
      1.83500000	     -7.39451151	     -2.20056597	      2.11143836	      0.14746626	      1.23833711	     -0.87003194	     12.45463174	      8.37300128	      0.90943690	     -8.44647105	      2.02875321	     -6.66058453	      3.57094995	     30.96345652	      5.02824836	      1.07669560	    -59.66424405	     -3.84689562	     -0.62396625	     23.88841927	     -5.27349078	      3.62697204	      3.67813499
      1.84000000	     -7.45503433	     -2.06677048	      2.04517522	      0.15273877	      1.23867393	     -0.86958585	     11.99542079	      8.28345752	      0.93725672	     -8.27344436	      2.33812792	     -6.43285762	      3.50923105	     31.50822574	      5.22419540	      1.01199452	    -58.70928569	     -3.18269712	     -0.45335982	     23.48462837	     -5.25476413	      3.44423465	      3.88427030
      1.84500000	     -7.52288672	     -1.94136548	      1.97918650	      0.15803669	      1.23894155	     -0.86910658	     11.55680402	      8.21149071	      0.99747637	     -8.12497518	      2.63136999	     -6.34726849	      3.45207663	     32.03579750	      5.39395881	      0.93993802	    -57.67443742	     -2.57101188	     -0.50053309	     23.18129051	     -5.22583625	      3.25892460	      4.03948493
      1.85000000	     -7.56781392	     -1.82006015	      1.93444532	      0.16331336	      1.23918008	     -0.86871638	     11.09243288	      8.13152708	      1.06354306	     -7.97481770	      2.92328673	     -6.20552492	      3.35437079	     32.51222963	      5.58324125	      0.93697760	    -56.56615576	     -2.01555025	     -0.47035193	     22.69089133	     -5.22316924	      3.09223823	      4.22237443
      1.85500000	     -7.65857077	     -1.72368937	      1.90566184	      0.16858901	      1.23929759	     -0.86833822	     10.70460551	      8.08013076	      1.15727725	     -7.86830016	      3.18784163	     -6.23254955	      3.30658181	     33.02676104	      5.75430421	      0.97864864	    -55.39582399	     -1.48752295	     -0.64413707	     22.49146502	     -5.17494295	      2.95170165	      4.31389828
      1.86000000	     -7.67062060	     -1.60767215	      1.88066170	      0.17390847	      1.23947265	     -0.86798882	     10.20351108	      8.00451995	      1.23803041	     -7.72457113	      3.47295004	     -6.15652704	      3.14293296	     33.40195942	      5.93346884	      1.01505242	    -54.12969413	     -1.06877137	     -0.79700601	     21.80633285	     -5.19482131	      2.79196470	      4.47775107
      1.86500000	     -7.72461597	     -1.51427107	      1.85803272	      0.17924336	      1.23951590	     -0.86763119	      9.78134141	      7.95941383	      1.34592047	     -7.64095767	      3.78797331	     -6.22645895	      3.05180858	     33.80894818	      6.07899961	      1.07280739	    -52.81028220	     -0.63657672	     -1.04438632	     21.47752423	     -5.16459671	      2.64923801	      4.61215493
      1.87000000	     -7.78013205	     -1.43835630	      1.85277633	      0.18455067	      1.23949539	     -0.86733586	      9.37920577	      7.92622539	      1.47512553	     -7.58980083	      4.07707803	     -6.32260182	      2.96649708	     34.18953966	      6.22549123	      1.20211094	    -51.41951148	     -0.20593803	     -1.33812966	     21.17848725	     -5.14411302	      2.53795730	      4.66715898
      1.87500000	     -7.77639463	     -1.35451436	      1.86759681	      0.18988088	      1.23951306	     -0.86708487	      8.87175582	      7.87960075	      1.61182571	     -7.47057374	      4.32470178	     -6.40046288	      2.78522919	     34.45492761	      6.39707222	      1.39129671	    -49.93400263	      0.02072180	     -1.77007319	     20.56401302	     -5.17124079	      2.41112711	      4.79872279
      1.88000000	     -7.82774454	     -1.29777798	      1.89634009	      0.19521621	      1.23939080	     -0.86689447	      8.46269766	      7.85788446	      1.72873132	     -7.42092523	      4.59266964	     -6.52140691	      2.59533834	     34.76381296	      6.54724831	      1.62106540	    -48.40937269	      0.33442625	     -2.17420033	     19.96574010	     -5.15024135	      2.33102305	      4.82001566
      1.88500000	     -7.83971150	     -1.23377135	      1.91267646	      0.20056803	      1.23926271	     -0.86667756	      8.00308244	      7.83419957	      1.89289521	     -7.36182306	      4.87397767	     -6.67762001	      2.45895343	     34.98056565	      6.67675971	      1.84892308	    -46.79132605	      0.59964338	     -2.59023373	     19.54764206	     -5.16325908	      2.23754095	      4.90126376
      1.89000000	     -7.84730728	     -1.18445019	      1.93822842	      0.20587117	      1.23907896	     -0.86650410	      7.56952706	      7.82490217	      2.07377320	     -7.35856714	      5.17037348	     -6.87704570	      2.31858552	     35.15706449	      6.80097568	      2.14362403	    -45.10270202	      0.85539962	     -3.04164411	     19.12393808	     -5.19330023	      2.16608819	      4.92386016
      1.89500000	     -7.87259517	     -1.14459643	      1.98517525	      0.21127360	      1.23884473	     -0.86638883	      7.11463420	      7.81736126	      2.22250398	     -7.28739452	      5.40264458	     -7.06700029	      2.13502290	     35.30187612	      6.92383461	      2.47992813	    -43.33880900	      1.04290185	     -3.56267338	     18.58856611	     -5.18215816	      2.10689280	      4.93910136
      1.90000000	     -7.89395300	     -1.12056659	      2.03430816	      0.21662893	      1.23853935	     -0.86630839	      6.68836960	      7.82766899	      2.38209179	     -7.27686481	      5.66956679	     -7.28164550	      1.94595752	     35.40364452	      7.02926170	      2.87003047	    -41.51138297	      1.25335214	     -4.05880559	     18.03502554	     -5.18784430	      2.07200726	      4.91124679
      1.90500000	     -7.88127368	     -1.08538123	      2.05934656	      0.22196763	      1.23823795	     -0.86618830	      6.23955826	      7.83314364	      2.58962802	     -7.29542102	      5.97267727	     -7.51686086	      1.81337719	     35.40537978	      7.10549547	      3.24931754	    -39.58416563	      1.46373270	     -4.45117182	     17.63118735	     -5.23871653	      2.02298999	      4.90723273
      1.91000000	     -7.88221877	     -1.06538240	      2.10664488	      0.22735368	      1.23788020	     -0.86613251	      5.78109452	      7.84764190	      2.76860623	     -7.27139317	      6.22073356	     -7.76311849	      1.65630018	     35.36324810	      7.18079018	      3.70432395	    -37.58007712	      1.62240489	     -4.92721403	     17.12648274	     -5.26424917	      1.99416595	      4.86666319
      1.91500000	     -7.91891146	     -1.07064684	      2.17032104	      0.23277947	      1.23742580	     -0.86615170	      5.34960269	      7.88105932	      2.91802059	     -7.22552677	      6.43239061	     -7.98306383	      1.46285642	     35.31670052	      7.24375766	      4.23086596	    -35.53002425	      1.73833546	     -5.47148161	     16.46695511	     -5.24120301	      1.99996899	      4.80518222
      1.92000000	     -7.90503260	     -1.06070562	      2.19712997	      0.23816940	      1.23699139	     -0.86609205	      4.88243018	      7.91008983	      3.12320498	     -7.21729554	      6.69381326	     -8.21695465	      1.33045297	     35.15196203	      7.25849634	      4.70981247	    -33.38812176	      1.88590037	     -5.81824915	     15.99127739	     -5.28533467	      1.98233218	      4.75998576
      1.92500000	     -7.93060643	     -1.07989111	      2.24950625	      0.24363130	      1.23646058	     -0.86611112	      4.43262065	      7.96184699	      3.27898138	     -7.16491379	      6.90160837	     -8.44942997	      1.18253596	     34.98796723	      7.26082149	      5.26762858	    -31.21077475	      1.97620839	     -6.27896450	     15.37372152	     -5.26805645	      2.00336597	      4.68854192
      1.93000000	     -7.95507762	     -1.11729745	      2.29152934	      0.24903404	      1.23586566	     -0.86613950	      4.01600582	      8.03691973	      3.43302809	     -7.17111768	      7.14089249	     -8.69324847	      1.04624457	     34.79361016	      7.22436870	      5.84859646	    -29.00367041	      2.04269375	     -6.68402987	     14.73971505	     -5.26825717	      2.04512334	      4.59572894
      1.93500000	     -7.97003766	     -1.14975726	      2.30872436	      0.25452722	      1.23526376	     -0.86610433	      3.55604533	      8.11107470	      3.61756341	     -7.12482662	      7.35047757	     -8.90871384	      0.93771133	     34.53541280	      7.13952611	      6.35759472	    -26.74319162	      2.11321281	     -6.97934287	     14.20983928	     -5.25849332	      2.06946784	      4.52989454
      1.94000000	     -7.97653834	     -1.20445362	      2.31684473	      0.25996087	      1.23460459	     -0.86607061	      3.12426020	      8.21474221	      3.78893446	     -7.14376831	      7.57705857	     -9.14911253	      0.84109905	     34.25173961	      7.01242558	      6.87207812	    -24.48080378	      2.13157428	     -7.23895744	     13.67394092	     -5.27555568	      2.12124538	      4.43234836
      1.94500000	     -8.00971716	     -1.28093333	      2.32735960	      0.26548058	      1.23387376	     -0.86606104	      2.68554187	      8.33761510	      3.94808392	     -7.10069851	      7.75747432	     -9.36895631	      0.75245130	     33.97347723	      6.85584665	      7.38839241	    -22.22461102	      2.09347515	     -7.53936368	     13.08030553	     -5.24192542	      2.19151456	      4.34958675
      1.95000000	     -8.05061612	     -1.37870341	      2.32123050	      0.27101186	      1.23307770	     -0.86604104	      2.26346061	      8.48586158	      4.10430376	     -7.07153197	      7.93647741	     -9.56920138	      0.68548217	     33.69911179	      6.65397976	      7.86398418	    -20.00298125	      2.02345324	     -7.77760054	     12.51838162	     -5.19868542	      2.28298375	      4.26850195
      1.95500000	     -8.09622884	     -1.49554091	      2.29744955	      0.27656551	      1.23222988	     -0.86600936	      1.85001109	      8.65645341	      4.25455935	     -7.05071534	      8.10893455	     -9.75535737	      0.63691376	     33.43822327	      6.41148439	      8.27145704	    -17.84665410	      1.92420758	     -7.93961438	     12.00306181	     -5.15061984	      2.39503118	      4.19126816
